<?xml version="1.0" standalone="no"?>
<!DOCTYPE svg PUBLIC "-//W3C//DTD SVG 20010904//EN"
 "http://www.w3.org/TR/2001/REC-SVG-20010904/DTD/svg10.dtd">
<svg version="1.0" xmlns="http://www.w3.org/2000/svg"
 width="500.000000pt" height="500.000000pt" viewBox="0 0 500.000000 500.000000"
 preserveAspectRatio="xMidYMid meet">
<metadata>
Created by potrace 1.14, written by Peter Selinger 2001-2017
</metadata>
<g transform="translate(0.000000,500.000000) scale(0.100000,-0.100000)"
fill="#000000" stroke="none">
<path d="M1359 4332 c-19 -37 -92 -166 -160 -287 -69 -121 -142 -251 -164
-290 -96 -174 -196 -349 -264 -464 -241 -402 -454 -766 -458 -781 -3 -11 102
-202 270 -491 229 -396 556 -966 659 -1149 14 -25 54 -95 89 -155 l64 -110
600 0 c330 0 600 3 600 6 0 3 -48 84 -106 180 -59 96 -121 201 -139 234 -55
100 -81 147 -111 197 -16 27 -29 51 -29 54 0 3 -15 29 -34 57 -30 46 -166 272
-326 542 -78 131 -220 377 -220 381 0 2 -31 58 -70 125 l-70 122 19 31 c24 39
116 196 266 454 103 177 119 200 130 185 19 -27 198 -322 227 -373 14 -25 67
-117 118 -205 332 -574 448 -778 580 -1020 83 -153 143 -256 265 -460 73 -121
155 -260 182 -310 28 -49 63 -112 78 -140 16 -27 32 -53 37 -56 15 -10 211 -4
215 7 2 6 24 46 49 90 25 43 57 99 71 124 14 25 41 72 61 105 19 33 42 74 52
90 9 17 76 133 148 258 73 126 132 230 132 233 0 3 8 17 19 32 24 35 551 947
551 954 0 3 -41 75 -91 159 -51 85 -100 168 -109 184 -10 17 -101 171 -204
344 -102 172 -186 315 -186 317 0 1 -15 29 -34 61 -18 32 -49 87 -69 123 -19
36 -116 209 -215 385 l-180 320 -601 3 c-331 1 -601 -1 -601 -4 0 -3 46 -81
101 -172 56 -92 156 -264 222 -382 66 -118 131 -235 145 -260 13 -25 35 -63
47 -85 40 -74 127 -229 140 -250 7 -11 26 -45 43 -75 60 -111 161 -287 201
-353 22 -37 41 -70 41 -73 0 -3 11 -20 25 -38 14 -18 25 -36 25 -40 0 -3 20
-40 45 -80 25 -41 45 -79 45 -84 0 -8 -253 -472 -295 -542 -9 -14 -29 -51 -45
-82 -17 -32 -34 -58 -38 -58 -8 0 -293 472 -411 683 -12 21 -86 149 -164 285
-133 229 -171 297 -250 442 -17 30 -94 161 -171 290 -78 129 -222 380 -321
558 l-178 322 -106 0 -106 0 -36 -68z m2034 -282 c3 -5 134 -230 175 -300 10
-19 113 -195 227 -390 114 -195 220 -379 237 -408 16 -30 60 -106 97 -170 37
-64 79 -137 93 -162 14 -25 35 -61 47 -81 l21 -36 -386 -664 c-212 -365 -391
-673 -397 -686 -11 -25 -25 -26 -39 -2 -62 107 -168 304 -168 313 0 12 24 55
378 672 111 194 203 356 204 361 2 5 -53 105 -122 223 -254 439 -532 926 -540
945 -4 11 -57 102 -118 202 -61 99 -109 183 -107 185 5 5 393 3 398 -2z
m-1697 -505 c3 -6 -34 -78 -82 -160 -47 -83 -96 -168 -109 -190 -12 -22 -48
-85 -80 -140 -32 -55 -63 -109 -69 -120 -6 -11 -64 -113 -129 -227 l-118 -206
164 -294 c90 -161 173 -309 184 -328 41 -73 182 -327 208 -375 54 -99 80 -141
117 -192 21 -29 38 -54 38 -56 0 -3 38 -72 84 -156 l85 -151 -82 -1 c-77 0
-252 0 -289 1 -9 0 -23 12 -31 28 -7 15 -101 171 -207 347 -163 270 -328 556
-480 830 -18 33 -68 123 -112 200 -43 77 -78 143 -78 148 0 4 65 121 144 260
79 139 156 274 170 300 15 26 56 98 92 159 35 61 64 112 64 114 0 2 22 41 49
86 26 46 88 153 136 238 48 85 97 170 107 188 l20 33 100 -163 c55 -90 102
-168 104 -173z"/>
</g>
</svg>
