<?xml version="1.0" standalone="no"?>
<!DOCTYPE svg PUBLIC "-//W3C//DTD SVG 20010904//EN"
 "http://www.w3.org/TR/2001/REC-SVG-20010904/DTD/svg10.dtd">
<svg version="1.0" xmlns="http://www.w3.org/2000/svg"
 width="1000.000000pt" height="1000.000000pt" viewBox="0 0 1000.000000 1000.000000"
 preserveAspectRatio="xMidYMid meet">
<metadata>
Created by potrace 1.14, written by Peter Selinger 2001-2017
</metadata>
<g transform="translate(0.000000,1000.000000) scale(0.100000,-0.100000)"
fill="#000000" stroke="none">
<path d="M3450 6900 c-146 -55 -275 -104 -287 -109 l-23 -11 0 -1779 c0 -1685
1 -1781 18 -1789 37 -20 573 -213 581 -210 7 3 416 480 2031 2370 l415 486 3
-429 c1 -236 1 -622 0 -858 l-3 -429 -273 319 -273 320 -220 -258 c-121 -141
-218 -263 -217 -269 4 -17 1061 -1253 1072 -1253 10 -1 551 196 579 211 16 8
17 104 17 1788 0 1684 -1 1780 -17 1788 -28 15 -569 212 -579 211 -5 0 -161
-179 -348 -397 -186 -218 -735 -861 -1220 -1429 l-881 -1031 -3 429 c-1 236
-1 622 0 858 l3 429 273 -319 274 -319 223 261 223 262 -176 206 c-97 113
-338 395 -536 626 -197 231 -366 421 -375 422 -9 1 -135 -43 -281 -97z"/>
</g>
</svg>
